<?xml version="1.0" encoding="UTF-8"?>
<svg id="Layer_1" xmlns="http://www.w3.org/2000/svg" version="1.1" viewBox="0 0 1688.5 1258.8">
  <!-- Generator: Adobe Illustrator 29.1.0, SVG Export Plug-In . SVG Version: 2.1.0 Build 142)  -->
  <defs>
    <style>
      .st0 {
        fill: #8577bf;
      }

      .st1 {
        fill: #ec6e4b;
      }

      .st2 {
        fill: #ffc44d;
      }

      .st3 {
        fill: #e24786;
      }

      .st4 {
        fill: #6a5baa;
      }

      .st5 {
        fill: #c7bdd6;
      }

      .st6 {
        fill: #e7e0f0;
      }

      .st7 {
        fill: #2d0403;
      }

      .st8 {
        fill: #2e2e2e;
        font-family: Courier-Bold, Courier;
        font-size: 52px;
        font-weight: 700;
        isolation: isolate;
      }

      .st9 {
        fill: #fcde63;
      }

      .st10 {
        fill: #7fd0ea;
      }

      .st11 {
        fill: #fd8b1a;
      }

      .st12 {
        fill: #370700;
      }

      .st13 {
        fill: #fff;
      }

      .st14 {
        fill: #b2edf7;
      }

      .st15 {
        fill: #ff8d6a;
      }

      .st16 {
        fill: #f07163;
      }

      .st17 {
        fill: #8a8a8a;
      }

      .st18 {
        fill: #491d14;
      }

      .st19 {
        fill: #f26da3;
      }

      .st20 {
        fill: #58bcdb;
      }

      .st21 {
        fill: #fca027;
      }

      .st22 {
        fill: #94e0f2;
      }

      .st23 {
        fill: #0f3264;
      }

      .st24 {
        fill: #1e0502;
      }

      .st25 {
        fill: #6d2a21;
      }
    </style>
  </defs>
  <path class="st23" d="M1686.4,986.8c-13.3,119.2-91.7,232.6-180.4,271.7H215.6S-128.2,874,52.5,399.5C219.1-37.8,697.5-55.6,917.8,124c238.7,194.6,162.3,259.8,457,407.7,290.7,145.8,323.7,347.9,311.7,455.2Z"/>
  <path class="st0" d="M376.3,1253.6l65-121.6h-60l-30.6,111.3c-4.2,15.4,20,20.2,25.6,10.3Z"/>
  <polygon class="st4" points="441.2 1132.1 381.2 1132.1 361.2 1204.8 402.4 1204.8 441.2 1132.1"/>
  <path class="st0" d="M1265.7,1253.6l-65-121.6h60l30.7,111.3c4.1,15.4-20.1,20.2-25.7,10.3Z"/>
  <polygon class="st4" points="1200.8 1132.1 1260.8 1132.1 1280.8 1204.8 1239.7 1204.8 1200.8 1132.1"/>
  <path class="st20" d="M254.3,905.6s28-18.8,79.4-28.3c44.6-8.3,71.8-8.3,71.8-8.3v150.9h-150.9l-.3-114.3Z"/>
  <path class="st20" d="M1386.5,905.6s-28-18.8-79.4-28.3c-44.6-8.3-71.8-8.3-71.8-8.3v150.9h150.9l.3-114.3Z"/>
  <path class="st10" d="M1387,905.6c-50.9-22.3-107.9,152.8-107.9,152.8H362.2s-57.1-175.1-107.9-152.8c-35.4,15.5,6.6,156.2,32.2,232.1,9.7,28.6,36.5,47.9,66.7,47.9h934.8c30.2,0,57-19.3,66.7-47.9,25.6-75.8,67.6-216.6,32.2-232.1Z"/>
  <path class="st10" d="M396.2,699.8c122.2-99.4,745.5-89,853.1,2.5,48.4,41.1-2,280.1-2,280.1H389.7s-49.6-237.1,6.4-282.6Z"/>
  <path class="st20" d="M341.4,1015.2s9.6,63.2,35.1,89c6.5,6.5,870,11.8,885.6-.2,18-13.9,29.7-80.1,29.7-80.1l-950.5-8.6Z"/>
  <path class="st22" d="M248.7,909.8s12-11.7,34.1,5.2c29.4,22.5,51.9,73.6,51.9,73.6,0,0-15.4-49.2-49-76.7-23.9-19.5-36.9-2.2-36.9-2.2Z"/>
  <path class="st22" d="M1392.8,910.1s-11.7-11.3-33.8,5.6c-29.4,22.5-52.7,73.6-52.7,73.6,0,0,16.1-49.4,49.8-76.7,24.2-19.6,36.6-2.5,36.6-2.5Z"/>
  <path class="st20" d="M737.9,958.9c-138.8,0-265.9-32.7-364.6-87,5.8,59.3,16.5,110.5,16.5,110.5h857.5s38-180.1,16.3-254.5c-85.5,135.6-288.7,231-525.7,231Z"/>
  <path class="st22" d="M1296.2,1006.1c-2.5-8.6-48.9-23.7-48.9-23.7H389.7s-47.2,15.2-49.7,23.8,30.8,83.6,39.7,88.3c2.2,1.2,226.1,6.1,447.1,6.1,215.1,0,427.5-4.9,429.6-6.1,9-4.8,42.2-79.8,39.7-88.4Z"/>
  <path class="st14" d="M1261.7,1001.8c12.7,10.3-197.4,10.3-441,10.3s-451.5,1.3-441-10.3c13.2-14.6,197.4-10.3,441-10.3s422.3-4.9,441,10.3Z"/>
  <path class="st2" d="M317.5,855.7c1.6,4,3.2,8.4,4.9,13.1,4.3,11.2,7.8,22.7,10.5,34.4.4,2.1.8,4.3,1.2,6.4.7,3.4,1.2,6.8,1.6,10.2,1.3,12.1,1.9,24.3,1.9,36.4h0c.2,7.7,0,14.6.3,20.5h0c.4,11,1.8,18.9,6,22,11,6.8,66.5-8.1,105.1-10.3,31.1-1.8,79.2,4.7,86.5-6.6,2.4-3.8,2-11.7-.2-21.6-1.2-5.8-2.8-12.3-4.8-19-5.5-18.6-12.7-38.6-15.4-49.5-.3-1.8-.7-3.3-.9-4.4-.5-3.6-.8-7.7-1-12.2-.5-7.6-.5-16.2-.6-24.7-.1-5.2-.2-10.4-.5-15.3-.7-15.6-2.6-28.7-8.4-32.1-12.1-7.3-39.2,11.5-81.1,15.9-57.5,5.9-104.4,0-109.9,12.1-2.1,4.7.5,13.1,4.7,24.7Z"/>
  <path class="st21" d="M312.7,831.2c2.7-5.8,14.9-7.5,33.2-8.3-36,148.8,116.8,175.1,190.4,142.1,1.3,7.8,1.3,13.9-.8,17.1-7.5,11.3-55.4,4.8-86.6,6.6-38.6,2.2-93.9,17.2-105,10.3-11.1-8.1-2.4-47-9.9-89.3-6.9-38.7-26.1-68.1-21.4-78.5Z"/>
  <path class="st9" d="M337.9,976.9l14.6-23.3,25.1,22.2c1.1,1.2,2.8,1.7,4.4,1.4,1.6-.1,3.1-1,4-2.3l18.2-26.9,25.7,22.6c1.2,1.1,2.9,1.5,4.5,1.2,1.6-.2,3-1.1,3.8-2.5l16.6-26.6,27,21.7c1.1,1,2.7,1.5,4.2,1.2,1.5-.2,2.9-1,3.8-2.3l19.1-26.2,25.4,22.6c.3.2.6.4.9.6-1.2-5.8-2.8-12.3-4.8-19l-18.7-16.7c-1.2-1.1-2.8-1.6-4.4-1.4-1.5.2-2.9,1-3.8,2.2l-19.3,26.7-27.3-22c-1.2-1.1-2.9-1.5-4.5-1.2-1.6.4-2.9,1.3-3.8,2.6l-16.4,26.3-25.4-22.3c-1.2-1.1-2.8-1.6-4.4-1.4-1.6.1-3.1,1-4,2.3l-18.3,26.8-25.2-22.5c-1.3-1-2.9-1.5-4.5-1.4-1.6.3-3.1,1.2-4,2.6l-9,14.4h0c.2,7.8,0,14.6.4,20.6Z"/>
  <path class="st2" d="M337.9,976.9c-.2-6-.2-13-.3-20.6l9-14.3c.9-1.4,2.4-2.3,4-2.6,1.6,0,3.2.4,4.5,1.4l25.2,22.5,6.1-9c3.1,2,6.3,3.9,9.6,5.7l-10.1,14.9c-.9,1.3-2.4,2.2-4,2.3-1.6.3-3.2-.2-4.4-1.4l-25.1-22.2-14.6,23.3Z"/>
  <path class="st9" d="M333,903.8c1.2,5.4,2.2,13.6,2.6,16.7l13-21.1,25,22.4c1.2,1,2.8,1.5,4.4,1.4,1.6-.2,3.1-1.1,4-2.5l18.3-26.8,25.7,22.5c1.2,1.1,2.9,1.6,4.5,1.4,1.7-.2,3.1-1.2,4-2.6l16.5-26.4,27,21.7c1.2,1,2.7,1.4,4.2,1.2,1.5-.3,2.9-1.1,3.8-2.3l19.2-26.4,10,9c-.3-1.8-.7-3.3-.9-4.4-.5-3.6-.8-7.7-1-12.2l-5.3-4.8c-1.2-1-2.8-1.5-4.4-1.4-1.6.2-3,1.1-4,2.3l-19.4,26.5-27.3-22c-1.2-1-2.8-1.4-4.3-1.1-1.6.1-3,1.1-3.8,2.5l-16.5,26.3-25.4-22.3c-2.3-2-5.7-1.9-7.8.4-.2.2-.4.5-.5.7l-18.3,26.8-25.2-22.5c-1.2-1.1-2.9-1.6-4.5-1.4-1.7.2-3.2,1.1-4,2.6l-9.5,15.9Z"/>
  <path class="st2" d="M342.5,887.9s0,0,0,0c.9,5.1,2.2,10.2,3.8,15.1l-10.8,17.6c0-.6-2.3-15.3-2.6-16.7l9.6-15.9Z"/>
  <path class="st9" d="M317.5,855.7c1.6,4,3.2,8.4,4.9,13.1l12.8-20.6,25.1,22.4c1.1,1.1,2.8,1.6,4.4,1.4,1.6-.2,3-1.1,4-2.3l18.3-26.9,25.7,22.5c1.2,1.2,2.9,1.7,4.5,1.4,1.6-.2,3-1.2,3.8-2.6l16.7-26.4,26.9,21.7c1.2.9,2.8,1.4,4.3,1.2,1.5-.3,2.8-1.1,3.7-2.3l19.2-26.4,21,18.7c-.1-5.2-.2-10.4-.5-15.3l-17.7-15.8c-2.2-2-5.7-1.9-7.7.3-.2.2-.3.4-.5.6l-19.3,26.5-27.3-22c-1.3-1-2.9-1.4-4.5-1.1-1.6.2-3,1.1-3.8,2.5l-16.4,26.3-25.4-22.4c-1.3-1-2.9-1.5-4.5-1.4-1.6.3-2.9,1.2-3.8,2.5l-18.3,26.8-25.2-22.5c-1.3-1-2.9-1.5-4.5-1.4-1.6.2-3.1,1.2-3.9,2.6l-11.7,18.9Z"/>
  <path class="st2" d="M317.5,855.7l11.7-18.9c.9-1.4,2.3-2.4,4-2.6,1.6-.1,3.2.4,4.5,1.4l4.9,4.4c-.7,4.7-1.2,9.2-1.6,13.6l-5.9-5.1-12.7,20.4c-1.8-4.8-3.4-9.1-4.9-13.1Z"/>
  <path class="st19" d="M442.9,928.2c-2.2-31.6-12.8-65.9-7.2-70.6,6.1-5.1,49.3,1.6,81.5,0,33.1-1.7,71.3-12.6,77.9-8.1,6.1,4.2-1,39.3,0,71s14.9,64.2,9.2,69.1-51,1.1-81.8,2.7c-34.5,1.8-75.4,9.9-81.6,5.7s4.4-38,2.1-69.7Z"/>
  <path class="st3" d="M442.9,928.2c-2.2-31.6-12.8-65.9-7.2-70.6,2-1.7,7.9-2.1,16-1.9-.6,5.3-.8,10.7-.6,16.1,3,59.5,57,105.1,120.6,101.9,10.6-.6,21.1-2.5,31.2-5.8,2.5,11.2,4.1,19.4,1.4,21.6-5.8,4.8-51,1.1-81.8,2.7-34.5,1.8-75.4,9.9-81.6,5.7s4.3-38,2.1-69.6Z"/>
  <path class="st2" d="M1305.4,855.7c-1.6,4-3.2,8.4-4.9,13.1-4.3,11.2-7.8,22.7-10.5,34.4-.4,2.1-.8,4.3-1.2,6.4-.7,3.4-1.2,6.8-1.6,10.2-1.3,12.1-1.9,24.3-1.9,36.4h0c-.2,7.7,0,14.6-.3,20.5h0c-.4,11-1.8,18.9-6,22-11,6.8-66.5-8.1-105-10.3-31.1-1.8-79.2,4.7-86.5-6.6-2.4-3.8-2-11.7.2-21.6,1.2-5.8,2.8-12.3,4.8-19,5.5-18.6,12.7-38.6,15.5-49.5.3-1.8.7-3.3.9-4.4.5-3.6.8-7.7,1-12.2.5-7.6.5-16.2.6-24.7.1-5.2.2-10.4.5-15.3.7-15.6,2.6-28.7,8.4-32.1,12.1-7.3,39.2,11.5,81.1,15.9,57.5,5.9,104.4,0,109.9,12.1,2.1,4.7-.4,13.1-4.7,24.7Z"/>
  <path class="st21" d="M1310.2,831.2c-2.7-5.8-14.9-7.5-33.2-8.3,36,148.8-116.8,175.1-190.4,142.1-1.3,7.8-1.3,13.9.8,17.1,7.5,11.3,55.5,4.8,86.6,6.6,38.6,2.2,94,17.2,105,10.3,11.1-8.1,2.4-47,9.9-89.3,6.9-38.7,26.1-68.1,21.4-78.5Z"/>
  <path class="st9" d="M1285,976.9l-14.6-23.3-25.1,22.2c-1.1,1.2-2.8,1.7-4.4,1.4-1.6-.1-3.1-1-4-2.3l-18.2-26.9-25.7,22.6c-1.2,1.1-2.9,1.5-4.5,1.2-1.6-.2-3-1.1-3.8-2.5l-16.6-26.6-27,21.7c-1.1,1-2.7,1.5-4.2,1.2-1.5-.2-2.9-1-3.8-2.3l-19-26.2-25.4,22.6c-.3.2-.6.4-.9.6,1.2-5.8,2.8-12.3,4.8-19l18.7-16.7c1.2-1.1,2.8-1.6,4.4-1.4,1.5.2,2.9,1,3.8,2.2l19.3,26.7,27.3-22c1.2-1.1,2.9-1.5,4.5-1.2,1.6.4,2.9,1.3,3.8,2.6l16.4,26.3,25.4-22.3c1.2-1.1,2.8-1.6,4.4-1.4,1.6.1,3.1,1,4,2.3l18.3,26.8,25.2-22.5c1.3-1,2.9-1.5,4.5-1.4,1.6.3,3.1,1.2,4,2.6l9,14.4h0c-.3,7.8-.1,14.6-.4,20.6Z"/>
  <path class="st2" d="M1285,976.9c.2-6,.2-13,.3-20.6l-9-14.3c-.9-1.4-2.4-2.3-4-2.6-1.6,0-3.2.4-4.5,1.4l-25.2,22.5-6.1-9c-3.1,2-6.3,3.9-9.6,5.7l10.1,14.9c.9,1.4,2.4,2.2,4,2.3,1.6.3,3.2-.2,4.4-1.4l25.1-22.2,14.6,23.3Z"/>
  <path class="st9" d="M1289.9,903.8c-1.2,5.4-2.2,13.6-2.6,16.7l-13-21.1-25,22.4c-1.2,1-2.8,1.5-4.4,1.4-1.6-.2-3.1-1.1-4-2.5l-18.3-26.8-25.7,22.5c-1.2,1.1-2.9,1.6-4.5,1.4-1.7-.2-3.1-1.2-4-2.6l-16.5-26.4-27,21.7c-1.2,1-2.7,1.4-4.2,1.2-1.5-.3-2.9-1.1-3.8-2.3l-19.1-26.3-10,9c.3-1.8.7-3.3.9-4.4.5-3.6.8-7.7,1-12.2l5.3-4.8c1.2-1,2.8-1.5,4.4-1.4,1.6.2,3,1.1,4,2.3l19.3,26.5,27.3-22c1.2-1,2.8-1.4,4.3-1.1,1.6.1,3,1.1,3.8,2.5l16.5,26.3,25.4-22.3c2.3-2,5.7-1.9,7.8.4.2.2.4.5.5.7l18.3,26.8,25.2-22.5c1.2-1.1,2.9-1.6,4.5-1.4,1.7.2,3.2,1.1,4,2.6l9.5,15.9Z"/>
  <path class="st2" d="M1280.4,887.9s0,0,0,0c-.9,5.1-2.2,10.2-3.8,15.1l10.8,17.6c0-.6,2.3-15.3,2.6-16.7l-9.5-15.9Z"/>
  <path class="st9" d="M1305.4,855.7c-1.6,4-3.2,8.4-4.9,13.1l-12.8-20.6-25.1,22.4c-1.1,1.1-2.8,1.6-4.4,1.4-1.6-.2-3-1.1-4-2.3l-18.3-26.9-25.7,22.5c-1.2,1.2-2.9,1.7-4.5,1.4-1.6-.2-3-1.2-3.8-2.6l-16.7-26.4-26.8,21.7c-1.2.9-2.8,1.4-4.3,1.2-1.5-.3-2.8-1.1-3.7-2.3l-19.2-26.4-21,18.7c.1-5.2.2-10.4.5-15.3l17.6-15.8c1.2-1,2.8-1.5,4.4-1.4,1.5.2,2.9,1.1,3.8,2.3l19.3,26.5,27.3-22c1.3-1,2.9-1.4,4.5-1.1,1.6.2,3,1.1,3.8,2.5l16.4,26.3,25.4-22.4c1.3-1,2.9-1.5,4.5-1.4,1.6.3,2.9,1.2,3.8,2.5l18.3,26.8,25.2-22.5c1.3-1,2.9-1.5,4.5-1.4,1.6.2,3.1,1.2,4,2.6l11.8,18.9Z"/>
  <path class="st2" d="M1305.4,855.7l-11.7-18.9c-.9-1.4-2.3-2.4-4-2.6-1.6-.1-3.2.4-4.5,1.4l-4.9,4.4c.7,4.7,1.2,9.2,1.6,13.6l5.9-5.1,12.7,20.4c1.8-4.8,3.5-9.1,5-13.1Z"/>
  <path class="st19" d="M1180,928.2c2.2-31.6,12.8-65.9,7.2-70.6-6.1-5.1-49.3,1.6-81.5,0-33.1-1.7-71.3-12.6-77.9-8.1-6.1,4.2,1,39.3,0,71s-14.9,64.2-9.2,69.1,51,1.1,81.8,2.7c34.5,1.8,75.4,9.9,81.6,5.7s-4.3-38-2.1-69.7Z"/>
  <path class="st3" d="M1180,928.2c2.2-31.6,12.8-65.9,7.2-70.6-2-1.7-7.9-2.1-16-1.9.6,5.3.8,10.7.6,16.1-3,59.5-57,105.1-120.6,101.9-10.6-.6-21.1-2.5-31.2-5.8-2.5,11.2-4.1,19.4-1.4,21.6,5.8,4.8,51,1.1,81.8,2.7,34.5,1.8,75.4,9.9,81.6,5.7s-4.3-38-2-69.6Z"/>
  <path class="st25" d="M652.8,685.3c2.7-12.9-6.1-26.2-14.6-39-9.9-14.9-20.1-30.2-12.9-45.8,7.5-16.3,46.3-50,54.1-57.3,22.9-21.6-6.5-70.8,10.6-97.3,16.9-26.2,59.8-39.2,102.8-10-1.3-4.5-5-20.6,2.7-34.2,4.7-8.3,12.7-14,23.9-17,16.2-4.3,31.8-1.2,45,9,11.5,8.9,20.5,22.8,25.8,39,8.4,26,18.4,24.1,38,26,12.8,1.3,24.8,1.2,38.8,8.3,28.6,14.4,35.7,38.8,20,68.6-11,20.9-20.8,41.4-20.1,61.8.6,17.5,7.2,32.8,24.1,49.1,15.4,11.6,30.6,23.9,30,37.7-1.7,36-58.1,52.7-28.6,95.1,30,43.2-39.3,71.9-177.3,72.9-105.9.8-170.9-42.3-173.3-43.9-14-10.1-27.5-22.4-30-36.9-2.6-14.9,5.1-24.3,14.9-36.2,9.4-11.4,21.1-25.7,26.2-49.9ZM819.5,397.5c29.4-6.1,58.5,8.4,63.4,46.6s51.7,15.8,78.7,37.7,21.8,47.3-6.2,97.1c-14.4,25.6,3.8,43.3,24.7,59.3-2.3-2.9-4.5-6-6.5-9.2-5.9-9.4-9.3-20.2-9.7-31.3-.7-21.1,9.2-41.9,20.4-63.2,15-28.6,8.5-51.1-18.8-64.9-13.5-6.8-26.3-7.8-37.5-8.7-9.3-.7-19.4-1-26.2-4.9-6.3-3.7-11-11.1-14.6-22.4-9.1-29.4-33.5-55-67.2-46.1-10.4,2.8-17.8,8-22.1,15.6-5.2,9.1-5.9,20.3-4.8,27,.6-10.3,5.8-28.4,26.2-32.7h0ZM614.6,771.1c2.8,22.1,31.8,37.4,33.2,38.6-14.7-20.5-27.2-47.3-3.8-72.3,36.1-38.4,19.1-77.8,2.1-105.1-12-19.4-11-38.6,2.9-57.3-8.3,7.3-16.1,16.3-21,26.9-6.5,14.1,2.8,28.2,12.8,43.1,8.8,13.3,18,27,15,41-5.2,24.9-17.2,39.5-26.8,51.2-9.3,11.4-16.7,20.4-14.4,34Z"/>
  <path class="st18" d="M746.1,581.4s15.1,22.6,12.4,36.4c-3.4,17.4-18.2,33.3-18.2,33.3h138.4s-19-16.2-21.5-33c-2.2-14.5,10.5-36.7,10.5-36.7h-121.5Z"/>
  <path class="st4" d="M909.7,921.9c0,32.7-43.3,51.2-100.7,51.2s-107.3-18.5-107.3-51.2,46.5-59.1,104-59.1,103.9,26.5,103.9,59.1Z"/>
  <path class="st15" d="M893.1,753.5c4.5,7.5,29.4,53.7,38.2,76.7l36.7,7.1c1.2.2,2.3-.5,2.5-1.6,0-.2,0-.5,0-.7-7.7-55.2-50.6-154.1-59.8-166.5-7.7-10.4-53.7-23.6-66.7-26.7-2.5-.6-6.7-2.4-8.5-4.2-12.8-13.9-7.6-48.6-7.6-48.6l-44.5.3s4.7,29.5-6.5,45.3c-2.5,3.5-8.4,5.1-12.5,6.5-14.9,5.2-50.7,11.7-62.3,25.5-7,8.4-57,158.1-50.5,172.7l40.5-13c10-25.5,29.7-64.5,32.9-76.1,4,5.1,16.1,46.5,14.9,67.2-3.7,64.1-19.4,80.4-19.4,80.4,0,0,28.8,14.8,88.8,14.8,69.3,0,88.2-5.3,88.2-5.3,0,0-17.5-24.4-18.7-87.6-.4-22.7,13-58.7,14-66.2Z"/>
  <path class="st2" d="M910.7,665.3c-15.9-15.7-68.9-24.3-70.1-24.7,0,0-2,26.2-36.3,26.2-27.5,0-34.5-27.5-34.5-27.5,0,0-52.8,7.4-69.4,27.3-19.9,23.9-39.4,90-39,92.4s13.4,10.4,28.7,14.5,27.7,5.4,29.2,4.6c.5-.3,4.7-8.2,8.1-15.7,6.8,8.9,13.1,51.5,12.8,57.1-3.7,64.3-20.6,75.5-20.6,75.5,0,0,29.1,19.5,89.3,19.4,69.5,0,89-7.1,89-7.1,0,0-19.1-21.5-20.3-85-.1-7.6,8.6-45.6,13.5-60.6,3.5,7.2,6.1,15.4,6.6,15.7,1.5.8,11.9,1.4,27.2-2.7s32.3-15.2,32.8-17.6-25-70.3-46.9-91.8Z"/>
  <path class="st11" d="M891.3,763.6c3.3,6.4,5.8,13.7,6.3,14,.8.4,5.1,1.1,14.6-.2,0,0-14.3-23.7-24.1-46.3-.9-2.2-2.5-1.9-2.4.4,2.6,55-45.2,50.8-45.4,53.1-.2,2.7,24.7,5.4,34.3-.8h.1c3.6-1.2,1.7,25.2,1.1,42.6-1.3,39.3-25.9,78.6-67.9,77.2-45.6-1.6-61.1-52.4-63-81.9-.8-12.8-1.5-38.9-1.5-38.9h0c14.8,7.3,35,3.4,34.9,1.3-.1-2.9-40.6-1.2-45.3-51.9-.3-2.9-1.7-2.7-2.6,0-5.3,16-12.7,31.2-21.8,45.4,5.5,1,9.8,1.1,10.6.6.5-.3,4.6-8.2,8.1-15.6.4,1.6.1-.1.4,1.6,13.7,82-18.5,135.7-18.5,135.7,0,0,40,18.3,100.2,18.2,69.5,0,96.9-11.6,96.9-11.6,0,0-29.8-55.5-15.1-142.8Z"/>
  <path class="st1" d="M828.9,623.2c-2.5-14.1-.9-22.7-.9-22.7l-43.5.3c.2,7.3-.5,14.5-2.1,21.6,19.2,14.2,27.2,14.5,46.5.8Z"/>
  <path class="st1" d="M713.5,778.1l-4.9-.7c-13.4,29.1-36.6,44.1-36.6,44.1,0,0,19.3-7,23.6-3.3,4.4-11.2,13.9-27.5,17.9-40.1Z"/>
  <path class="st1" d="M906.3,778l5.8-.6c18.6,35.7,34.8,43.3,34.8,43.3,0,0-11.2-4.7-20.6-2.2,0,0-13.1-26.8-20-40.5Z"/>
  <path class="st15" d="M652.8,840.7c-1.5-1.7-1.4-4.4.4-5.9,0,0,0,0,0,0,7.8-6.8,42.4-16.5,42.4-16.5,25,6.5,71.3,36.8,96.7,46.4,3.5,1.4,7.8,3.2,10,5.9,3.8,4.6,7,10.6.6,11.7-10.1,1.7-92.8-12.4-107.6-15.7-17.6-3.9-37.5-19.9-42.6-25.9Z"/>
  <path class="st1" d="M727.3,866.9c-32.3-4.5-48.3-10.4-76.1-31.6,0,0,0,3.8,1.1,5.2,5,6.1,25.3,22.1,42.9,26,14.8,3.3,97.4,17.4,107.6,15.7,2-.4,3.2-1.2,3.8-2.4-22-.5-49-8.7-79.3-12.9Z"/>
  <path class="st15" d="M970.6,834.7l-43.6-16.5c-26.8,10.4-73.6,31.7-96.1,43.5-3.4,1.8-9.1,5.1-11.4,7.8-3.8,4.6-5.7,10.8.7,11.9,10.1,1.7,92.8-12.6,107.6-15.9,17.6-3.9,43.3-24.6,42.8-30.8Z"/>
  <path class="st1" d="M895.8,865.9c32.3-4.6,46.6-12.8,74.4-34,.5,1.7.8,6.3,0,7.3-5,6.1-24.7,22.3-42.2,26.3-14.8,3.3-97.4,17.6-107.6,15.9-2-.4-3.2-1.2-3.8-2.4,22-.6,48.9-8.8,79.2-13.1Z"/>
  <path class="st15" d="M843.9,872.7c-2.4-7.3-10.4-10.9-17-7.6-3.3,1.6-6.6,3.7-8.6,6-4.7,5.6-8,23.9-5.3,39.7s21.5,3,29.5-15.6c3.9-8.9,3.4-16.7,1.4-22.5Z"/>
  <path class="st1" d="M840.4,888.5c2.5-5.6,3.4-11.9,2.5-18,.4.7.7,1.4,1,2.2,2,5.9,2.4,13.7-1.4,22.6-8,18.5-26.8,31.4-29.5,15.6-.1-.7-.2-1.4-.3-2,5.5,7.8,20.7-4.1,27.7-20.3Z"/>
  <path class="st15" d="M778.6,874.5c2.4-7.3,10.3-10.9,17-7.6,2.6,1.4,5.1,3,7.5,4.7,4.7,5.6,10.6,25.4,6.5,41-3,11.8-21.5,3-29.5-15.5-3.9-8.9-3.4-16.7-1.5-22.6Z"/>
  <path class="st1" d="M782.1,890.4c-2.6-5.6-3.4-11.9-2.5-18-.4.7-.7,1.4-1,2.2-1.9,5.9-2.4,13.7,1.4,22.6,8,18.5,25.8,27.3,29.5,15.5.2-.7.3-1.3.3-2-5.5,7.8-20.7-4.1-27.7-20.2Z"/>
  <path class="st6" d="M915.5,910.6h-211.9c-2.9,0-5.3-2-5.9-4.8l-21.3-151.7c-.5-3.8,1.9-6.9,5.4-6.9h255.6c3.5,0,5.9,3.1,5.4,6.9l-21.2,151.7c-.6,2.8-3.1,4.8-6,4.8Z"/>
  <path class="st5" d="M917.7,918.2h-216.3c-1.5,0-2.7-1.2-2.8-2.7v-2.2c0-1.5,1.2-2.7,2.8-2.7h216.3c1.5,0,2.7,1.2,2.8,2.7v2.2c0,1.5-1.3,2.7-2.8,2.7Z"/>
  <path class="st5" d="M929.6,752.4s-27.9,115.6-141.1,127.6c-30,3.2-60.2-3.7-85.9-19.5-.9-.5-2-.3-2.6.6-.2.4-.3.8-.3,1.2l5.4,38.7c.5,2.6,2.9,4.5,5.5,4.5h198.4c2.7,0,5-1.9,5.5-4.5l19.9-142c.5-3.6-1.7-6.5-5-6.5Z"/>
  <ellipse class="st5" cx="809.5" cy="833.8" rx="24.6" ry="11.9"/>
  <path class="st13" d="M694.1,757.2l156.1-10h-168.4c-3.5,0-5.9,3.1-5.3,6.9l17.1,122.3-5.5-112.5c-.1-3.5,2.6-6.5,6.1-6.7Z"/>
  <path class="st15" d="M614.1,896.2s7.2-29.6,64.5-19c57.3,10.6,121.5,57.4,165.1,76.6,47.6,21,56.1,21.6,56.1,21.6,0,0,17-4,38.1-10.1,34.1-9.7,41.8,2.2,42.3,7.7.8,7.7-1.7,15.8-26.6,22-33.7,8.5-59.4,4.3-59.4,4.3-12.2-2.1-185.6-15.6-215.5-25.9-36.8-12.7-79.2-41.6-64.7-77.2Z"/>
  <path class="st5" d="M892.5,976s49.4-22,65.1-22.3c13.9-.3,30.4,12.4,29.1,23.7s-15.3,23.8-39.8,24.7c-20.6.8-60.3-2.2-60.3-2.2,0,0,9.2-8.5,5.8-23.9Z"/>
  <path class="st6" d="M886.7,999.9s9.2-8.5,5.8-23.9c0,0,40.6-18.2,59.9-21.8,13,1.7,26.6,13.2,25.4,23.5-1.3,10.7-13.8,22.4-35.8,24.5-21.4.2-55.4-2.2-55.4-2.2Z"/>
  <path class="st5" d="M893.2,980.5s32.8-10.9,46.1-11.9,19,5.7,19.2,10.4-7.5,12.7-18,13.6-48.1-3.4-48.1-3.4c.6-2.8.8-5.7.7-8.7Z"/>
  <path class="st13" d="M939.8,965.2s.8,2,1.5,4.9c.4,1.6.8,3.2,1,4.8.3,1.8.4,3.6.4,5.4,0,1.8-.1,3.6-.4,5.4-.3,1.7-.6,3.4-1,4.8s-.7,2.7-.9,3.6-.3,1.4-.3,1.4c0,0,.4-.3,1.1-1,.9-.9,1.8-1.9,2.5-3,1-1.5,1.9-3.2,2.4-5,.6-2.1,1-4.2,1-6.4,0-2.2-.4-4.3-1.1-6.4-.6-1.8-1.4-3.5-2.5-5-1-1.4-2.3-2.7-3.8-3.6Z"/>
  <path class="st13" d="M924.1,965.9s.8,2,1.5,4.9c.4,1.6.8,3.2,1,4.8.3,1.8.4,3.6.4,5.4,0,1.8-.1,3.6-.4,5.4-.3,1.7-.6,3.4-1,4.8s-.7,2.7-.9,3.6-.3,1.4-.3,1.4c0,0,.4-.3,1.1-1,.9-.9,1.8-1.9,2.5-3,1-1.5,1.9-3.2,2.5-5,.6-2.1,1-4.2,1-6.4,0-2.2-.4-4.3-1.1-6.4-.6-1.8-1.4-3.4-2.5-4.9-1-1.5-2.3-2.7-3.8-3.6Z"/>
  <path class="st13" d="M909.4,969.6c.6,1.3,1.1,2.7,1.5,4.1.4,1.4.8,2.7,1,4.1.3,1.6.4,3.1.4,4.7,0,1.6-.1,3.2-.4,4.7-.3,1.5-.5,3-.9,4.2s-.6,2.3-.8,3-.3,1.2-.3,1.2c.3-.3.6-.6.9-.9.8-.8,1.4-1.7,2-2.6.9-1.3,1.5-2.8,2-4.3.5-1.8.8-3.6.8-5.4,0-3.5-1.1-6.8-3-9.7-.8-1.3-1.9-2.4-3.2-3.2Z"/>
  <path class="st0" d="M612.9,895s10.5-30.6,67.7-19.6,217,98.8,217.3,99.7c2.3,7.6.8,20.1-2.1,25.8-.3.6-191.3-14.9-218.5-24.5-36.7-13-79.1-45.9-64.3-81.4Z"/>
  <path class="st4" d="M864.3,959.5s8.3,9.7,0,20c-4.8,6-12.8,10.5-37.5,9.4-57.6-2.5-108.1-6.3-147.9-19.4-26.5-8.8-60-33.5-69-57,2.2,28.4,36.6,53.1,67.2,63.9,27.2,9.6,219.5,25.5,219.9,24.9,4.8-8.3,4.9-22.3,2.6-26.3-.4-.7-29.1-13.2-35.3-15.5Z"/>
  <path class="st15" d="M997.5,899.3s-6.7-30-63.6-19.6-121,57.4-164.4,76.6c-47.4,20.9-54.5,22.2-54.5,22.2,0,0-13.4-3.1-37.5-11.2-17-5.8-32.1.8-35.8,4.8-5.3,5.7,3.8,22.8,22.1,28.3,29.2,8.8,49.5,4.6,49.5,4.6,12.1-2,189.4-17.7,219-27.9,36.6-12.7,79-41.6,65-77.7Z"/>
  <path class="st5" d="M724.7,980.5s-50.2-21.7-66.2-21.8c-14-.1-30.6,12.9-29.2,24.4s15.8,23.9,40.6,24.6c20.8.6,61-3,61-3,0,0-9.4-8.5-6.2-24.1Z"/>
  <path class="st6" d="M730.8,1004.6s-9.4-8.5-6.2-24.1c0,0-41.3-18-60.9-21.4-13.1,1.9-26.8,13.6-25.5,24.1,1.4,10.8,14.3,22.5,36.5,24.3,21.6,0,56-2.9,56-2.9Z"/>
  <path class="st5" d="M724,985s-33.3-10.7-46.8-11.5-19.1,6-19.3,10.7,7.7,12.8,18.3,13.5,48.6-4,48.6-4c-.6-2.9-.9-5.8-.8-8.8Z"/>
  <path class="st13" d="M676.7,970.1s-.8,2-1.5,4.9c-.4,1.6-.8,3.2-1,4.9-.3,1.8-.4,3.7-.3,5.5,0,1.8.2,3.7.4,5.5.4,1.8.6,3.4,1,4.9s.7,2.7.9,3.6.3,1.4.3,1.4c0,0-.4-.3-1.1-1-1-.9-1.8-1.9-2.5-3-1.1-1.5-1.9-3.2-2.5-5-.7-2.1-1-4.3-1.1-6.4,0-2.2.3-4.4,1-6.5.6-1.8,1.4-3.5,2.5-5,1-1.5,2.4-2.8,3.9-3.8Z"/>
  <path class="st13" d="M692.6,970.6s-.8,2-1.5,4.9c-.4,1.6-.8,3.2-1,4.9-.3,1.8-.4,3.7-.4,5.5,0,1.8.2,3.7.4,5.5.4,1.8.6,3.4,1,4.9s.7,2.7.9,3.6.3,1.5.3,1.5c0,0-.4-.3-1.1-1-1-.9-1.8-1.9-2.5-3-1.1-1.5-1.9-3.2-2.5-5-.7-2.1-1-4.2-1.1-6.4,0-2.2.3-4.4,1-6.5.6-1.8,1.4-3.5,2.5-5,1-1.5,2.3-2.8,3.9-3.8Z"/>
  <path class="st13" d="M707.4,974.1c-.6,1.4-1,2.8-1.4,4.2-.4,1.4-.7,2.8-.9,4.2-.3,1.6-.4,3.2-.3,4.8,0,1.6.2,3.2.4,4.8.3,1.5.6,3,1,4.2s.6,2.3.9,3.1.3,1.2.3,1.2c-.3-.3-.6-.6-.9-.9-.8-.8-1.5-1.7-2.1-2.6-.9-1.3-1.6-2.8-2.1-4.3-.6-1.8-.9-3.6-.9-5.5,0-3.5,1-6.9,2.9-9.9.8-1.3,1.9-2.4,3.2-3.3Z"/>
  <path class="st0" d="M998.8,898.1s-10-31-66.8-20.2-120.6,58.1-164,77.5c-16.8,7.6-34.1,14.3-51.6,20-.7.3-1.1,1.1-.8,1.8,0,0,0,.2.1.2,2.4,3.9,3.8,6.1,4.7,12.7.6,4.3.2,10-2.4,13.9-.2.3-.2.8.2,1,.1.1.3.2.5.1,34.7-3.9,188.4-15.6,215.5-25.1,36.5-12.9,78.9-45.9,64.7-81.9Z"/>
  <path class="st4" d="M786.4,946.2s-50.8,23.6-50.3,34.6c.4,9.3,9.9,13.8,34.4,12.9,57.1-2.1,144-17.2,161.2-23.3,26.2-9.2,60.6-31,69.8-54.6-2.5,28.8-37,53.5-67.4,64.2-27.1,9.6-216.1,26.2-216.2,25.5-.9-5.4-3.2-23.9-2.8-29.6,0-.9,71.2-29.7,71.2-29.7Z"/>
  <path class="st13" d="M804.8,666.3c-26.8,0-34.9-27.1-34.9-27.1-4,.5-7.9,1.2-11.8,2.2,3.6,19.2,21.7,35.5,47.1,35.5s43.9-15.2,48.2-33.8c-7.2-1.6-12.6-2.5-13-2.6,0,0-3.2,25.8-35.6,25.8Z"/>
  <path class="st15" d="M869.2,546.2c-1.1.1-2.1.4-3.1.8-.6-42-27.2-75.7-59.9-75.7s-59.4,33.9-59.9,76c-1.2-.6-2.5-1-3.8-1.1-6.8-.6-10.2,5.3-9.4,15.2,1.1,12.8,12.2,24.3,16.6,23.8,1.3,0,2.4-.8,3-1.9,9.7,27.5,41.6,44.8,53.8,44.8s42.9-17.3,53.1-44.3c.6.9,1.7,1.4,2.8,1.3,4.4-.4,15.1-11,16.2-23.8.8-9.8-2.6-15.8-9.3-15.1Z"/>
  <path class="st25" d="M800.3,456.4c-26.1.4-49.9,10.5-60.8,60.1-5.4,24.2,6.4,39.1,11,42.9.4.3,1,.2,1.3-.2.2-.2.2-.5.1-.8-2.8-11.9-1.5-30.5,15.1-38.2,18-8.4,22.3-14.5,21.3-29.8-1.1-16.7,13.1-19.2,17.9-19.2,7.5,0,36.5,0,39.5,39.6,1.7,22,22.4,27,16.5,51.1,0,0,4,.4,8.2-8.6,15.5-33.6,3.4-98.1-70-96.9Z"/>
  <path class="st18" d="M850.6,521.1c-8.8-17.3,9.7-45.2-9.5-56.5-18.5-10.9-33.1,6.6-33.1,6.6h0c7.5,0,34,2.3,34.3,39.6.2,25.3,26.6,28.2,19.7,51.1,0,0,4,.4,8.2-8.6,1.1-2.4,2.1-4.9,2.8-7.5,1.7-15.5-16.9-13.8-22.4-24.7Z"/>
  <path class="st18" d="M808,471.3s-14.1-15.4-25.4-3.1h0c-.7.6-1.4,1.3-2,2.1-1.3,1.7-2.2,3.6-2.7,5.7-.6,2.5-.7,5-.4,7.6.4,2.6.7,5.2.9,7.8.2,2.6-.1,5.3-.9,7.8-.9,2.4-2.6,4.4-4.8,5.8-2.3,1.4-4.8,2.5-7.4,3.2-1.3.4-2.7.8-4,1.1s-2.7.9-4,1.4c-4.8,1.7-9.2,4.6-12.6,8.4-1.3,1.6-2.4,3.4-3.2,5.3-.6,1.5-1.1,3-1.4,4.5-.2,1-.4,2-.5,3,0,.7-.1,1.1-.1,1.1v-.3c-1.9,10.5,5.5,21.7,10.8,26.7.4.3,1.1.3,1.4-.2.1-.2.2-.4.2-.7-1.8-12.4.4-31.5,15.8-37.7,14.8-5.9,26-10.6,23.7-26.9-2.3-16.6,12-22.7,16.7-22.7ZM781.8,507.3c-7.8,9.3-32,3.4-39.9,19-.3.6-.6,1.1-.9,1.6.4-.9.8-13.1,28.7-18.7,7-1.4,10.2-5.7,11.2-10.2,1.9-8.4-1.1-16.7-1.1-17.2,4.6,8.1,7.3,19.1,1.9,25.6Z"/>
  <path class="st16" d="M782.2,590s1.6,12.2,11.4,18c8.1,4.7,18,5,26.3.6,10.2-5.5,12.4-17.1,12.4-17.1-30.7,28.7-50.1-1.5-50.1-1.5Z"/>
  <path class="st12" d="M781.2,589.2c-.1-.2,0-.5.2-.6.2,0,.4,0,.5,0,2.9,2.2,9.7,5.4,24.5,4.9,16.8-.6,24-3.1,26.7-4.4.2-.1.5,0,.6.2,0,.1,0,.3,0,.4-2,3.6-8.7,12.7-24.8,15.4-15.7,2.7-24.5-10.2-27.7-16Z"/>
  <path class="st13" d="M807.2,593.7c-8.6.5-20.5-2.3-20.5-2.3,0,0,1.6,4.9,4.1,6.4.9.6,1.9,1,2.9,1.4-2.3.3-4,.6-4,.6,6.3,7.9,26.2,8.2,34.5-.3-1.5-.5-3-.9-4.6-1.1,1.4-.3,2.6-.9,3.8-1.8,1.8-1.7,3.3-5.6,3.3-5.6-6.4,1.5-12.9,2.4-19.5,2.7Z"/>
  <path class="st16" d="M783.7,589.8c3.8,2.7,11.6,4.9,23.8,4.6,13.8-.3,20.5-3.2,24.2-4.7,0,0-15.6-.8-18.7-.3-3.5.7-7.1.8-10.7.2-4.8-.7-18.6.2-18.6.2Z"/>
  <path class="st24" d="M776.2,539.9c-7,2.1-10.8,10.2-8.6,18.1.3,1.1,1.4-10.2,10.1-12.5,9.6-2.4,15.5,6.4,15.1,5-2.2-7.9-9.6-12.7-16.6-10.6Z"/>
  <path class="st24" d="M838.1,539.7c6.9,1.7,10.9,9.5,9,17.5-.3,1.2-1.7-10.1-10.3-11.9-9.4-1.9-14.9,7.2-14.5,5.8,1.9-8,9-13.1,15.8-11.4Z"/>
  <path class="st1" d="M799.8,575.2c-.2-.3-.1-.8.2-1,.2-.1.4-.2.6,0,2.2.8,4.6,1.2,6.9,1.2,2.3,0,4.5-.5,6.6-1.3.6-.2,1.2.4.8.9-1.7,2.4-4.4,3.8-7.4,3.8-3,0-5.8-1.3-7.8-3.5Z"/>
  <path class="st7" d="M788,524.9c.3-1.1-1.6-2.5-7.6-1.6-5.1,1-9.5,4.4-11.7,9.1-.2.4.1.6.5.3,4-4.2,9.5-6.5,15.2-6.6,2.6-.2,3.4-.6,3.6-1.2Z"/>
  <path class="st7" d="M826.7,525.1c-.2-1.1,1.5-2.5,7.3-1.5,4.9,1.1,9,4.6,10.9,9.3.2.4-.2.6-.5.3-3.6-4.2-8.8-6.6-14.3-6.8-2.4-.2-3.3-.7-3.4-1.2Z"/>
  <path class="st18" d="M746.1,603.6c.4.7.6,1.5.9,2.3.3.9.5,1.8.6,2.7,0,.5.2,1.1.2,1.7s0,1.2,0,1.9c0,1.5,0,2.9-.2,4.4-.2,1.6-.6,3.2-1.1,4.8-.5,1.7-1.2,3.3-2,4.9-.4.8-.9,1.6-1.4,2.3-.5.8-1,1.5-1.5,2.3l-1.8,2.1c-.6.7-1.2,1.4-1.9,1.9-.7.6-1.3,1.2-2,1.8l-1,.9c-.3.3-.7.5-1,.7-1.4.9-2.8,1.8-4,2.6s-2.7,1.3-3.9,1.8c-.6.3-1.2.6-1.7.8l-1.6.5c-1,.3-1.9.6-2.7.8-1.5.4-2.3.6-2.3.6,0,0,.7-.6,2-1.4.6-.4,1.4-1,2.2-1.5l1.4-.9,1.5-1.1c1-.8,2.1-1.6,3.3-2.4s2.2-1.9,3.4-2.9,2.2-2.2,3.4-3.3c.6-.6,1.1-1.2,1.6-1.8l1.5-1.9c.5-.6,1-1.3,1.4-2,.5-.6.9-1.3,1.3-2,.8-1.3,1.5-2.7,2.1-4.1.6-1.3,1.1-2.7,1.5-4.1.2-.7.3-1.4.5-2,.2-.6.3-1.2.4-1.9l.3-1.8c0-.6.1-1.1.2-1.6.1-1,.2-1.9.2-2.7s0-1.4,0-1.8v-.6Z"/>
  <path class="st18" d="M873.7,599.6s0,.8-.2,2.1-.3,3.2-.4,5.5c0,1.1,0,2.3-.1,3.6s0,2.6.1,4c.1,2.8.6,5.6,1.3,8.4.3,1.4.8,2.7,1.3,4,.2.7.6,1.2.8,1.9s.7,1.2,1,1.8l1.1,1.6c.4.5.7,1,1.1,1.5l1.2,1.4,1.2,1.2c.4.4.8.7,1.2,1.1s.7.7,1.1,1c.7.6,1.3,1.1,1.9,1.5,1.1.8,1.7,1.3,1.7,1.3,0,0-.8-.2-2.1-.6-.8-.2-1.6-.5-2.3-.9-1-.4-2-1-2.9-1.5l-1.6-1.1c-.5-.4-1-.9-1.5-1.3s-1-1-1.5-1.5-1-1.1-1.4-1.7c-.9-1.3-1.7-2.6-2.4-4.1-.7-1.5-1.3-3-1.7-4.6-.4-1.6-.7-3.2-.8-4.8-.1-1.5-.2-3.1-.1-4.6.2-2.7.6-5.4,1.3-8,.5-1.8,1.2-3.6,2-5.3.3-.7.6-1.3,1-1.9Z"/>
  <rect class="st17" x="162.8" y="0" width="408" height="263"/>
  <path class="st13" d="M469.7,149.3c0-5.8-4.9-10.4-10.7-10.4l-245.5-.2c-5.7,0-10.4,4.6-10.4,10.4,0,5.7,4.6,10.4,10.4,10.4h0l245.5.2c5.8,0,10.6-4.6,10.7-10.4Z"/>
  <path class="st13" d="M252.6,184.6h-39.1c-5.7,0-10.4,4.6-10.4,10.4,0,5.7,4.6,10.4,10.4,10.4h39.1c5.7,0,10.4-4.6,10.4-10.4,0-5.7-4.6-10.4-10.4-10.4h0,0Z"/>
  <path class="st13" d="M213.6,111.9h129.4c5.7.1,10.4-4.5,10.4-10.2,0-5.7-4.6-10.4-10.4-10.4h-129.4c-5.7-.1-10.4,4.5-10.4,10.2,0,5.7,4.6,10.4,10.4,10.4h0Z"/>
  <path class="st13" d="M496.4,91.4h-105.8c-5.7,0-10.4,4.5-10.4,10.3,0,5.7,4.6,10.4,10.4,10.4h105.8c5.7,0,10.4-4.5,10.4-10.3,0-5.7-4.6-10.4-10.4-10.4h0Z"/>
  <path class="st13" d="M496.3,184.8l-207.4-.2c-5.7,0-10.4,4.6-10.4,10.4,0,5.7,4.6,10.4,10.4,10.4h0l207.4.2c5.7,0,10.4-4.6,10.4-10.4,0-5.7-4.6-10.4-10.4-10.4h0Z"/>
  <rect class="st17" x="1245.6" y="319.4" width="408" height="248.5"/>
  <path class="st13" d="M1558.1,463.1c-.1-5.8-4.9-10.4-10.7-10.4l-245.5-.2c-5.7,0-10.4,4.6-10.4,10.4,0,5.7,4.6,10.4,10.4,10.4h0l245.5.2c5.8,0,10.6-4.6,10.7-10.4Z"/>
  <path class="st13" d="M1341,498.4h-39.1c-5.7,0-10.4,4.6-10.4,10.4,0,5.7,4.6,10.4,10.4,10.4h39.1c5.7,0,10.4-4.6,10.4-10.4,0-5.7-4.6-10.4-10.4-10.4h0Z"/>
  <path class="st13" d="M1302,425.7h129.4c5.7.1,10.4-4.5,10.4-10.3,0-5.7-4.6-10.4-10.4-10.4h-129.4c-5.7-.1-10.4,4.5-10.4,10.3,0,5.7,4.6,10.4,10.4,10.4h0Z"/>
  <path class="st13" d="M1584.8,405.2h-105.8c-5.7,0-10.4,4.6-10.4,10.3,0,5.7,4.6,10.4,10.4,10.4h105.9c5.7,0,10.4-4.6,10.4-10.3,0-5.7-4.6-10.4-10.4-10.4h0Z"/>
  <path class="st13" d="M1584.7,498.5l-207.4-.2c-5.7,0-10.4,4.6-10.4,10.4,0,5.7,4.6,10.4,10.4,10.4h0l207.4.2c5.7,0,10.4-4.6,10.4-10.4,0-5.7-4.6-10.4-10.4-10.4h0Z"/>
  <text class="st8" transform="translate(205.3 62.6)"><tspan x="0" y="0">ACT ONE</tspan></text>
  <text class="st8" transform="translate(1296.3 373.8)"><tspan x="0" y="0">MEET JOE</tspan></text>
</svg>